<svg width="1398" height="900" viewBox="0 0 1398 900" fill="none" xmlns="http://www.w3.org/2000/svg">
<g opacity="0.1" clip-path="url(#clip0)">
<path d="M965.208 -116.475C965.208 -116.475 841.919 -87.043 728.065 32.3012C614.212 151.646 647.735 153.012 537.855 221.936C427.974 290.86 366.392 367.235 398.549 483.847C430.706 600.46 427.974 615.114 450.819 735.7C473.665 856.286 563.307 1053.25 744.206 1143.04C925.105 1232.82 836.58 1136.33 1054.97 1209.97C1154.05 1209.97 1174.17 1167.13 1214.39 1171.1C1254.62 1175.08 1284.05 1222.02 1348.36 1197.93C1412.68 1173.83 1645.72 924.589 1673.9 770.472C1702.09 616.356 1706.06 497.135 1651.18 388.595C1596.31 280.055 1577.56 255.963 1458.24 182.196C1339.05 108.552 1266.66 -2.71965 1171.56 -48.2965C1076.45 -93.8734 1030.76 -121.816 965.208 -116.475Z" stroke="white" stroke-miterlimit="10"/>
<path d="M946.832 -274.566C946.832 -274.566 794.242 -238.055 653.198 -90.3961C512.154 57.2629 553.623 59.1258 417.545 144.567C281.467 230.008 205.11 324.515 244.965 468.945C284.82 613.375 281.467 631.631 309.651 780.904C337.835 930.178 449.081 1174.21 673.063 1285.48C897.045 1396.75 787.537 1277.16 1057.95 1368.44C1180.75 1368.44 1205.58 1315.28 1255.37 1320.25C1305.15 1325.22 1341.66 1383.34 1421.24 1353.41C1500.83 1323.48 1789.62 1014.87 1824.38 823.997C1859.15 633.121 1864.24 485.462 1796.2 350.967C1728.16 216.596 1704.94 186.666 1557.32 95.3886C1409.7 4.11068 1320.05 -133.613 1202.23 -190.119C1084.4 -246.624 1028.16 -281.272 946.832 -274.566Z" stroke="white" stroke-miterlimit="10"/>
<path d="M933.299 -391.178C933.299 -391.178 758.981 -349.451 597.947 -180.805C436.914 -12.1579 484.218 -10.0467 328.896 87.4405C173.574 184.928 86.2901 292.971 131.732 457.892C177.174 622.813 173.449 643.677 205.606 814.186C237.763 984.696 364.778 1263.37 620.544 1390.42C876.31 1517.46 751.283 1380.98 1060.19 1485.17C1200.36 1485.17 1228.8 1424.57 1285.66 1430.16C1342.53 1435.87 1384.24 1502.19 1475.13 1468.03C1566.14 1433.88 1895.78 1081.44 1935.63 863.365C1975.49 645.291 1981.07 476.769 1903.47 323.149C1825.87 169.529 1799.3 135.501 1630.57 31.3078C1461.84 -72.8856 1359.66 -230.231 1225.07 -294.685C1090.48 -359.138 1026.17 -398.754 933.299 -391.178Z" stroke="white" stroke-miterlimit="10"/>
<path d="M919.269 -512.386C919.269 -512.386 722.478 -465.318 540.586 -274.815C358.694 -84.3109 412.206 -81.9513 236.77 28.2031C61.3343 138.357 -37.1234 260.31 14.2783 446.467C65.6799 632.624 61.3343 656.22 97.7128 848.835C134.091 1041.45 277.494 1356.02 566.287 1499.45C855.08 1642.89 713.911 1488.77 1062.67 1606.5C1220.97 1606.5 1253.13 1538.08 1317.32 1544.41C1381.51 1550.87 1428.57 1625.75 1531.25 1587.25C1633.93 1548.76 2006.28 1150.61 2051.22 904.595C2096.17 658.455 2102.62 467.951 2014.84 294.71C1927.06 121.468 1897.14 82.8456 1706.68 -34.8843C1516.22 -152.614 1400.76 -330.202 1248.79 -402.976C1096.82 -475.75 1024.18 -520.955 919.269 -512.386Z" stroke="white" stroke-miterlimit="10"/>
</g>
<defs>
<clipPath id="clip0">
<rect width="2084" height="2121" fill="white" transform="translate(0 -514)"/>
</clipPath>
</defs>
</svg>
